<svg width="97" height="96" viewBox="0 0 97 96" fill="none" xmlns="http://www.w3.org/2000/svg">
<path d="M48.3 59.3C42.1 59.3 37 54.2 37 48C37 41.8 42.1 36.7 48.3 36.7C54.5 36.7 59.6 41.8 59.6 48C59.6 54.2 54.5 59.3 48.3 59.3ZM48.3 40.8C44.3 40.8 41 44.1 41 48.1C41 52.1 44.3 55.4 48.3 55.4C52.3 55.4 55.6 52.1 55.6 48.1C55.6 44.1 52.3 40.8 48.3 40.8Z" fill="#8D9ACE"/>
<path d="M48.3 68.3C37.1 68.3 28 59.2 28 48C28 36.8 37.1 27.7 48.3 27.7C59.5 27.7 68.6 36.8 68.6 48C68.5 59.2 59.4 68.3 48.3 68.3ZM48.3 31.8C39.3 31.8 32 39.1 32 48.1C32 57.1 39.3 64.4 48.3 64.4C57.3 64.4 64.6 57.1 64.6 48.1C64.5 39.1 57.2 31.8 48.3 31.8Z" fill="#8D9ACE"/>
<path d="M48.3 77.6C32 77.6 18.8 64.4 18.8 48.1C18.8 31.8 32 18.6 48.3 18.6C64.6 18.6 77.8 31.8 77.8 48.1C77.8 64.4 64.5 77.6 48.3 77.6ZM48.3 22.6C34.2 22.6 22.8 34 22.8 48.1C22.8 62.2 34.2 73.6 48.3 73.6C62.4 73.6 73.8 62.2 73.8 48.1C73.8 34 62.3 22.6 48.3 22.6Z" fill="#8D9ACE"/>
<path d="M48.3002 87.2C26.7002 87.2 9.2002 69.6 9.2002 48.1C9.2002 26.6 26.8002 9 48.3002 9C69.8002 9 87.4002 26.6 87.4002 48.1C87.4002 69.6 69.8002 87.2 48.3002 87.2ZM48.3002 12.9C28.9002 12.9 13.2002 28.7 13.2002 48C13.2002 67.3 29.0002 83.1 48.3002 83.1C67.6002 83.1 83.4002 67.3 83.4002 48C83.4002 28.7 67.6002 12.9 48.3002 12.9Z" fill="#8D9ACE"/>
<path d="M48.3 96C21.9 96 0.300049 74.5 0.300049 48C0.300049 21.5 21.8 0 48.3 0C74.8 0 96.3 21.5 96.3 48C96.3 74.5 74.7 96 48.3 96ZM48.3 4.10001C24.1 4.10001 4.30005 23.8 4.30005 48.1C4.30005 72.4 24 92.1 48.3 92.1C72.6 92.1 92.3 72.4 92.3 48.1C92.3 23.8 72.5 4.10001 48.3 4.10001Z" fill="#8D9ACE"/>
</svg>
