<svg width="326" height="96" viewBox="0 0 326 96" fill="none" xmlns="http://www.w3.org/2000/svg">
<path d="M127.1 22.6H128.8V24.6C129.1 24.2 129.4 23.9 129.8 23.6C130.2 23.3 130.6 23.1 130.9 22.9C131.3 22.7 131.7 22.6 132.1 22.5C132.5 22.4 132.9 22.4 133.3 22.4C134.2 22.4 135.1 22.6 135.8 22.9C136.6 23.2 137.2 23.6 137.8 24.2C138.4 24.7 138.8 25.4 139.1 26.2C139.4 27 139.6 27.8 139.6 28.6C139.6 29.5 139.4 30.3 139.1 31.1C138.8 31.9 138.4 32.5 137.8 33C137.3 33.6 136.6 34 135.8 34.3C135 34.6 134.2 34.8 133.3 34.8C132.9 34.8 132.5 34.8 132.1 34.7C131.7 34.6 131.3 34.5 130.9 34.3C130.5 34.1 130.1 33.9 129.8 33.6C129.4 33.3 129.1 33 128.8 32.6V41.8H127.1V22.6ZM137.8 28.4C137.8 27.8 137.7 27.1 137.5 26.6C137.3 26 137 25.5 136.6 25.1C136.2 24.7 135.8 24.4 135.2 24.1C134.7 23.9 134 23.7 133.4 23.7C132.8 23.7 132.1 23.8 131.5 24.1C130.9 24.3 130.4 24.7 130 25.1C129.6 25.5 129.3 26 129 26.6C128.8 27.2 128.6 27.8 128.6 28.4C128.6 29 128.7 29.7 129 30.2C129.2 30.8 129.6 31.3 130 31.7C130.4 32.1 130.9 32.4 131.5 32.7C132.1 32.9 132.7 33.1 133.4 33.1C134.1 33.1 134.7 33 135.2 32.7C135.7 32.5 136.2 32.1 136.6 31.7C137 31.3 137.3 30.8 137.5 30.2C137.7 29.7 137.8 29.1 137.8 28.4Z" fill="#9AA0B1"/>
<path d="M154.4 25.3C154.2 24.8 153.8 24.4 153.4 24.1C153 23.8 152.5 23.7 151.9 23.7C151.6 23.7 151.3 23.7 151 23.8C150.7 23.9 150.4 24 150.2 24.1C150 24.2 149.8 24.4 149.6 24.6C149.5 24.8 149.4 25.1 149.4 25.4C149.4 25.9 149.6 26.4 150 26.6C150.4 26.8 151 27.1 151.7 27.2L153.4 27.6C154.2 27.8 154.9 28.2 155.4 28.7C155.9 29.3 156.2 30 156.2 30.8C156.2 31.4 156.1 32 155.8 32.4C155.5 32.9 155.2 33.2 154.8 33.5C154.4 33.8 153.9 34 153.3 34.1C152.7 34.2 152.2 34.3 151.6 34.3C150.7 34.3 149.9 34.1 149.1 33.8C148.3 33.5 147.7 32.9 147.1 32L148.5 31C148.8 31.5 149.3 32 149.8 32.3C150.3 32.6 150.9 32.8 151.6 32.8C151.9 32.8 152.3 32.8 152.6 32.7C152.9 32.6 153.2 32.5 153.5 32.3C153.8 32.1 154 31.9 154.1 31.7C154.3 31.5 154.3 31.2 154.3 30.8C154.3 30.2 154.1 29.8 153.6 29.5C153.2 29.2 152.6 29 152 28.9L150.4 28.5C150.2 28.4 149.9 28.4 149.6 28.3C149.3 28.2 148.9 28 148.6 27.8C148.3 27.6 148 27.3 147.8 26.9C147.6 26.5 147.4 26.1 147.4 25.5C147.4 24.9 147.5 24.4 147.8 23.9C148 23.4 148.4 23.1 148.8 22.8C149.2 22.5 149.7 22.3 150.2 22.2C150.7 22.1 151.2 22 151.8 22C152.6 22 153.4 22.2 154.1 22.5C154.8 22.8 155.3 23.4 155.7 24.1L154.4 25.3Z" fill="#9AA0B1"/>
<path d="M169 32.2L172.6 22.5H174.6L168.7 37.3C168.3 38.2 167.9 38.9 167.4 39.5C166.9 40 166.1 40.3 165.1 40.3C164.9 40.3 164.6 40.3 164.3 40.3C164 40.3 163.8 40.2 163.5 40.2L163.7 38.6C164.1 38.8 164.5 38.9 164.9 38.9C165.5 38.9 165.9 38.7 166.3 38.4C166.6 38 166.9 37.5 167.2 36.8L168.1 34.6L163.3 22.7H165.4L169 32.2Z" fill="#9AA0B1"/>
<path d="M195.5 34.3H193.4L201.1 16.6H202.9L210.6 34.3H208.5L206.6 29.7H197.5L195.5 34.3ZM198.2 28H205.9L202.1 18.7L198.2 28Z" fill="#9AA0B1"/>
<path d="M220.6 34.3H218.8V16.6H220.6V34.3Z" fill="#9AA0B1"/>
<path d="M128.6 68.8H126.2V52.4H128.6V59H137.9V52.4H140.3V68.8H137.9V61H128.6V68.8Z" fill="#3E4C54"/>
<path d="M160.5 60.2C160.5 60.4 160.5 60.5 160.5 60.7C160.5 60.9 160.5 61.1 160.5 61.3H146.9C146.9 62.1 147.1 62.9 147.4 63.6C147.7 64.3 148.1 65 148.7 65.5C149.2 66 149.9 66.5 150.6 66.8C151.3 67.1 152.1 67.3 152.9 67.3C154.1 67.3 155.2 67 156.1 66.4C157 65.8 157.7 65.2 158.1 64.4L159.9 65.8C158.9 67 157.8 67.9 156.7 68.5C155.5 69 154.3 69.3 152.9 69.3C151.7 69.3 150.6 69.1 149.5 68.7C148.5 68.3 147.6 67.7 146.8 66.9C146.1 66.1 145.5 65.2 145 64.2C144.6 63.1 144.4 62 144.4 60.8C144.4 59.6 144.6 58.4 145 57.4C145.4 56.4 146 55.4 146.8 54.7C147.5 53.9 148.4 53.3 149.4 52.9C150.4 52.5 151.5 52.3 152.7 52.3C154 52.3 155.1 52.5 156.1 52.9C157.1 53.3 157.9 53.9 158.5 54.7C159.2 55.4 159.6 56.3 160 57.3C160.3 58 160.5 59 160.5 60.2ZM158.1 59.4C158 57.9 157.5 56.6 156.6 55.6C155.7 54.6 154.4 54.1 152.7 54.1C151.9 54.1 151.2 54.2 150.5 54.5C149.8 54.8 149.2 55.2 148.7 55.7C148.2 56.2 147.8 56.8 147.5 57.4C147.2 58 147 58.7 147 59.4H158.1V59.4Z" fill="#3E4C54"/>
<path d="M174.7 61.2C173.6 61.2 172.5 61.4 171.6 61.6C170.7 61.9 169.8 62.3 169.1 62.9C168.4 63.5 167.8 64.3 167.2 65.2C166.7 66.2 166.3 67.4 166 68.8H163.3C163.9 66.3 164.7 64.3 165.8 62.8C166.9 61.4 168.3 60.4 170.1 59.8L164.1 52.4H166.8L172.3 59.3C172.7 59.3 173 59.2 173.4 59.2C173.8 59.2 174.2 59.1 174.6 59.1V52.4H177V59.1C177.4 59.1 177.8 59.1 178.2 59.2C178.6 59.2 179 59.3 179.3 59.3L184.8 52.4H187.5L181.5 59.8C183.3 60.4 184.8 61.4 185.8 62.9C186.8 64.4 187.7 66.3 188.4 68.8H185.7C185.4 67.4 185 66.1 184.4 65.2C183.9 64.2 183.3 63.5 182.5 62.9C181.8 62.3 181 61.9 180 61.6C179.1 61.3 178 61.2 176.9 61.2V68.8H174.5V61.2H174.7Z" fill="#3E4C54"/>
<path d="M194.6 68.8H192.2V52.4H194.6V59H203.9V52.4H206.3V68.8H204V61H194.7V68.8H194.6Z" fill="#3E4C54"/>
<path d="M227.9 60.6C227.9 61.8 227.7 63 227.3 64C226.9 65 226.3 66 225.5 66.7C224.7 67.5 223.8 68.1 222.7 68.5C221.6 68.9 220.4 69.1 219.2 69.1C217.9 69.1 216.8 68.9 215.7 68.5C214.6 68.1 213.7 67.5 212.9 66.7C212.1 65.9 211.5 65 211.1 64C210.7 62.9 210.5 61.8 210.5 60.6C210.5 59.4 210.7 58.2 211.1 57.2C211.5 56.2 212.1 55.2 212.9 54.5C213.7 53.7 214.6 53.1 215.7 52.7C216.8 52.3 217.9 52.1 219.2 52.1C220.5 52.1 221.7 52.3 222.7 52.7C223.7 53.1 224.7 53.7 225.5 54.5C226.3 55.3 226.9 56.2 227.3 57.2C227.7 58.3 227.9 59.4 227.9 60.6ZM225.4 60.6C225.4 59.7 225.3 58.8 225 58C224.7 57.2 224.3 56.5 223.8 55.9C223.3 55.3 222.6 54.8 221.8 54.5C221 54.1 220.2 54 219.2 54C218.2 54 217.4 54.2 216.6 54.5C215.8 54.8 215.2 55.3 214.7 55.9C214.2 56.5 213.7 57.2 213.5 58C213.2 58.8 213.1 59.7 213.1 60.6C213.1 61.5 213.2 62.4 213.5 63.2C213.8 64 214.2 64.7 214.7 65.3C215.2 65.9 215.9 66.4 216.6 66.7C217.4 67 218.2 67.2 219.2 67.2C220.2 67.2 221 67 221.8 66.7C222.6 66.4 223.2 65.9 223.8 65.3C224.3 64.7 224.8 64 225 63.2C225.3 62.4 225.4 61.6 225.4 60.6Z" fill="#3E4C54"/>
<path d="M248.8 56.3C248.5 55.6 247.9 55.1 247.2 54.6C246.5 54.2 245.7 54 244.8 54C244.4 54 244 54 243.5 54.1C243.1 54.2 242.7 54.3 242.4 54.6C242.1 54.9 241.8 55.1 241.6 55.4C241.4 55.7 241.3 56.1 241.3 56.6C241.3 57.4 241.6 58 242.2 58.4C242.8 58.8 243.8 59.2 245.2 59.4C247.1 59.8 248.6 60.4 249.5 61.1C250.4 61.9 250.9 62.9 250.9 64.2C250.9 65.1 250.7 65.9 250.4 66.6C250 67.2 249.6 67.8 249 68.2C248.4 68.6 247.8 68.9 247 69.1C246.3 69.3 245.5 69.4 244.8 69.4C243.6 69.4 242.4 69.1 241.2 68.6C240 68.1 239.1 67.3 238.3 66.2L240.2 64.8C240.6 65.5 241.2 66.1 242.1 66.6C242.9 67.1 243.8 67.3 244.8 67.3C245.3 67.3 245.8 67.3 246.3 67.2C246.8 67.1 247.2 66.9 247.5 66.7C247.9 66.5 248.1 66.2 248.3 65.8C248.5 65.4 248.6 65 248.6 64.5C248.6 63.6 248.2 63 247.4 62.6C246.6 62.2 245.4 61.8 243.8 61.4C243.3 61.3 242.8 61.1 242.2 61C241.7 60.8 241.1 60.6 240.7 60.2C240.2 59.9 239.8 59.4 239.5 58.9C239.2 58.4 239 57.7 239 57C239 56.2 239.2 55.4 239.5 54.8C239.8 54.2 240.3 53.7 240.8 53.3C241.3 52.9 242 52.6 242.7 52.4C243.4 52.2 244.1 52.1 244.9 52.1C246 52.1 247.2 52.4 248.2 52.9C249.3 53.4 250.1 54.1 250.6 55.1L248.8 56.3Z" fill="#3E4C54"/>
<path d="M257.1 77.2H254.7V52.4H257.1V55.2H257.2C257.9 54.1 258.8 53.3 259.9 52.8C261 52.3 262.2 52 263.3 52C264.6 52 265.7 52.2 266.8 52.7C267.8 53.1 268.7 53.7 269.5 54.5C270.2 55.3 270.8 56.2 271.2 57.2C271.6 58.2 271.8 59.4 271.8 60.6C271.8 61.8 271.6 62.9 271.2 64C270.8 65 270.2 66 269.5 66.7C268.8 67.5 267.9 68.1 266.8 68.5C265.8 68.9 264.6 69.2 263.3 69.2C262.1 69.2 261 68.9 259.9 68.4C258.8 67.9 257.9 67.1 257.2 66H257.1V77.2ZM269.3 60.6C269.3 59.7 269.2 58.8 268.9 58C268.6 57.2 268.2 56.5 267.7 55.9C267.2 55.3 266.5 54.8 265.8 54.5C265 54.1 264.2 54 263.2 54C262.3 54 261.4 54.2 260.7 54.5C259.9 54.8 259.3 55.3 258.7 55.9C258.1 56.5 257.7 57.2 257.4 58C257.1 58.8 256.9 59.7 256.9 60.6C256.9 61.5 257.1 62.4 257.4 63.2C257.7 64 258.2 64.7 258.7 65.3C259.3 65.9 259.9 66.3 260.7 66.7C261.5 67 262.3 67.2 263.2 67.2C264.2 67.2 265.1 67 265.8 66.7C266.6 66.4 267.2 65.9 267.7 65.3C268.2 64.7 268.6 64 268.9 63.2C269.2 62.4 269.3 61.6 269.3 60.6Z" fill="#3E4C54"/>
<path d="M286.4 58.2C286.4 56.8 286 55.7 285.3 55C284.6 54.3 283.5 54 282 54C281 54 280.1 54.2 279.3 54.5C278.5 54.8 277.7 55.3 277.2 55.9L275.9 54.3C276.6 53.6 277.5 53.1 278.6 52.6C279.7 52.2 281 51.9 282.4 51.9C283.3 51.9 284.1 52 284.9 52.3C285.7 52.5 286.3 52.9 286.9 53.4C287.5 53.9 287.9 54.5 288.3 55.3C288.6 56 288.8 56.9 288.8 57.9V65.1C288.8 65.7 288.8 66.4 288.9 67.1C289 67.8 289 68.3 289.1 68.8H287C286.9 68.4 286.9 68 286.8 67.5C286.8 67 286.7 66.6 286.7 66.1H286.6C285.9 67.2 285 68 284.1 68.5C283.2 69 282 69.2 280.7 69.2C280.1 69.2 279.4 69.1 278.8 68.9C278.2 68.7 277.5 68.4 277 68C276.5 67.6 276 67.1 275.6 66.5C275.2 65.9 275.1 65.1 275.1 64.2C275.1 62.9 275.4 61.9 276.1 61.2C276.8 60.5 277.6 59.9 278.7 59.5C279.8 59.1 281 58.9 282.4 58.8C283.8 58.7 285.2 58.6 286.7 58.6V58.2H286.4ZM285.7 60.6C284.7 60.6 283.7 60.6 282.7 60.7C281.7 60.8 280.8 60.9 280 61.2C279.2 61.4 278.5 61.8 278 62.3C277.5 62.8 277.2 63.4 277.2 64.2C277.2 64.8 277.3 65.3 277.5 65.7C277.7 66.1 278 66.4 278.4 66.7C278.8 66.9 279.2 67.1 279.6 67.2C280.1 67.3 280.5 67.4 281 67.4C281.8 67.4 282.6 67.3 283.2 67C283.9 66.7 284.4 66.3 284.8 65.8C285.2 65.3 285.6 64.7 285.8 64.1C286 63.4 286.2 62.8 286.2 62V60.8H285.7V60.6Z" fill="#3E4C54"/>
<path d="M305.7 56.2C305.3 55.6 304.7 55.1 304 54.6C303.2 54.2 302.4 54 301.5 54C300.5 54 299.7 54.2 298.9 54.5C298.1 54.8 297.5 55.3 296.9 55.9C296.4 56.5 295.9 57.2 295.6 58C295.3 58.8 295.2 59.7 295.2 60.6C295.2 61.5 295.3 62.4 295.6 63.2C295.9 64 296.3 64.7 296.8 65.3C297.3 65.9 298 66.4 298.8 66.7C299.6 67 300.4 67.2 301.4 67.2C302.4 67.2 303.3 67 304.1 66.6C304.8 66.2 305.4 65.7 305.9 65.1L307.7 66.4C307 67.3 306.1 68 305.1 68.5C304.1 69 302.9 69.3 301.4 69.3C300.1 69.3 298.9 69.1 297.8 68.7C296.7 68.3 295.8 67.7 295.1 66.9C294.4 66.1 293.8 65.2 293.3 64.2C292.9 63.1 292.7 62 292.7 60.8C292.7 59.6 292.9 58.4 293.3 57.4C293.7 56.4 294.3 55.4 295.1 54.7C295.9 54 296.8 53.3 297.8 52.9C298.9 52.5 300.1 52.3 301.4 52.3C302.5 52.3 303.6 52.5 304.7 53C305.8 53.5 306.7 54.2 307.4 55.1L305.7 56.2Z" fill="#3E4C54"/>
<path d="M325.4 60.2C325.4 60.4 325.4 60.5 325.4 60.7C325.4 60.9 325.4 61.1 325.4 61.3H311.8C311.8 62.1 312 62.9 312.3 63.6C312.6 64.3 313 65 313.6 65.5C314.1 66 314.8 66.5 315.5 66.8C316.2 67.1 317 67.3 317.8 67.3C319 67.3 320.1 67 321 66.4C321.9 65.8 322.6 65.2 323 64.4L324.8 65.8C323.8 67 322.7 67.9 321.6 68.5C320.4 69 319.2 69.3 317.8 69.3C316.6 69.3 315.5 69.1 314.4 68.7C313.4 68.3 312.5 67.7 311.7 66.9C311 66.1 310.4 65.2 309.9 64.2C309.5 63.1 309.3 62 309.3 60.8C309.3 59.6 309.5 58.4 309.9 57.4C310.3 56.4 310.9 55.4 311.7 54.7C312.5 54 313.3 53.3 314.3 52.9C315.3 52.5 316.4 52.3 317.6 52.3C318.9 52.3 320 52.5 321 52.9C322 53.3 322.8 53.9 323.5 54.7C324.2 55.4 324.6 56.3 325 57.3C325.2 58 325.4 59 325.4 60.2ZM323 59.4C322.9 57.9 322.4 56.6 321.5 55.6C320.6 54.6 319.3 54.1 317.6 54.1C316.8 54.1 316.1 54.2 315.4 54.5C314.7 54.8 314.1 55.2 313.6 55.7C313.1 56.2 312.7 56.8 312.4 57.4C312.1 58 311.9 58.7 311.9 59.4H323V59.4Z" fill="#3E4C54"/>
<path d="M48.3 59.3C42.1 59.3 37 54.2 37 48C37 41.8 42.1 36.7 48.3 36.7C54.5 36.7 59.6 41.8 59.6 48C59.6 54.2 54.5 59.3 48.3 59.3ZM48.3 40.8C44.3 40.8 41 44.1 41 48.1C41 52.1 44.3 55.4 48.3 55.4C52.3 55.4 55.6 52.1 55.6 48.1C55.6 44.1 52.3 40.8 48.3 40.8Z" fill="#BFA4CE"/>
<path d="M48.3 68.3C37.1 68.3 28 59.2 28 48C28 36.8 37.1 27.7 48.3 27.7C59.5 27.7 68.6 36.8 68.6 48C68.5 59.2 59.4 68.3 48.3 68.3ZM48.3 31.8C39.3 31.8 32 39.1 32 48.1C32 57.1 39.3 64.4 48.3 64.4C57.3 64.4 64.6 57.1 64.6 48.1C64.5 39.1 57.2 31.8 48.3 31.8Z" fill="#BFA4CE"/>
<path d="M48.3 77.6C32 77.6 18.8 64.4 18.8 48.1C18.8 31.8 32 18.6 48.3 18.6C64.6 18.6 77.8 31.8 77.8 48.1C77.8 64.4 64.5 77.6 48.3 77.6ZM48.3 22.6C34.2 22.6 22.8 34 22.8 48.1C22.8 62.2 34.2 73.6 48.3 73.6C62.4 73.6 73.8 62.2 73.8 48.1C73.8 34 62.3 22.6 48.3 22.6Z" fill="#BFA4CE"/>
<path d="M48.3002 87.2C26.7002 87.2 9.2002 69.6 9.2002 48.1C9.2002 26.6 26.8002 9 48.3002 9C69.8002 9 87.4002 26.6 87.4002 48.1C87.4002 69.6 69.8002 87.2 48.3002 87.2ZM48.3002 12.9C28.9002 12.9 13.2002 28.7 13.2002 48C13.2002 67.3 29.0002 83.1 48.3002 83.1C67.6002 83.1 83.4002 67.3 83.4002 48C83.4002 28.7 67.6002 12.9 48.3002 12.9Z" fill="#BFA4CE"/>
<path d="M48.3 96C21.9 96 0.300049 74.5 0.300049 48C0.300049 21.5 21.8 0 48.3 0C74.8 0 96.3 21.5 96.3 48C96.3 74.5 74.7 96 48.3 96ZM48.3 4.10001C24.1 4.10001 4.30005 23.8 4.30005 48.1C4.30005 72.4 24 92.1 48.3 92.1C72.6 92.1 92.3 72.4 92.3 48.1C92.3 23.8 72.5 4.10001 48.3 4.10001Z" fill="#BFA4CE"/>
</svg>
